<?xml version="1.0" encoding="UTF-8"?>
<svg xmlns="http://www.w3.org/2000/svg" xmlns:xlink="http://www.w3.org/1999/xlink" viewBox="0 0 32 32" version="1.1" fill="#ffffff" width="32px" height="32px">
<g id="surface1" fill="#ffffff">
<path style=" " d="M 16 5 C 9.382813 5 4 10.382813 4 17 C 4 20.445313 5.457031 23.535156 7.78125 25.71875 L 8.09375 26 L 23.90625 26 L 24.21875 25.71875 C 26.542969 23.535156 28 20.445313 28 17 C 28 10.382813 22.617188 5 16 5 Z M 16 7 C 21.535156 7 26 11.464844 26 17 C 26 19.753906 24.832031 22.191406 23.03125 24 L 8.96875 24 C 7.167969 22.191406 6 19.753906 6 17 C 6 11.464844 10.464844 7 16 7 Z M 16 8 C 15.449219 8 15 8.449219 15 9 C 15 9.550781 15.449219 10 16 10 C 16.550781 10 17 9.550781 17 9 C 17 8.449219 16.550781 8 16 8 Z M 12 9.0625 C 11.449219 9.0625 11 9.511719 11 10.0625 C 11 10.613281 11.449219 11.0625 12 11.0625 C 12.550781 11.0625 13 10.613281 13 10.0625 C 13 9.511719 12.550781 9.0625 12 9.0625 Z M 20 9.0625 C 19.449219 9.0625 19 9.511719 19 10.0625 C 19 10.613281 19.449219 11.0625 20 11.0625 C 20.550781 11.0625 21 10.613281 21 10.0625 C 21 9.511719 20.550781 9.0625 20 9.0625 Z M 9.0625 12 C 8.511719 12 8.0625 12.449219 8.0625 13 C 8.0625 13.550781 8.511719 14 9.0625 14 C 9.613281 14 10.0625 13.550781 10.0625 13 C 10.0625 12.449219 9.613281 12 9.0625 12 Z M 22.9375 12 C 22.742188 12 22.5625 12.058594 22.40625 12.15625 L 17 15.28125 C 16.707031 15.109375 16.363281 15 16 15 C 14.894531 15 14 15.894531 14 17 C 14 18.105469 14.894531 19 16 19 C 17.105469 19 18 18.105469 18 17 L 23.3125 13.90625 C 23.671875 13.753906 23.9375 13.414063 23.9375 13 C 23.9375 12.449219 23.488281 12 22.9375 12 Z M 8 16 C 7.449219 16 7 16.449219 7 17 C 7 17.550781 7.449219 18 8 18 C 8.550781 18 9 17.550781 9 17 C 9 16.449219 8.550781 16 8 16 Z M 24 16 C 23.449219 16 23 16.449219 23 17 C 23 17.550781 23.449219 18 24 18 C 24.550781 18 25 17.550781 25 17 C 25 16.449219 24.550781 16 24 16 Z M 9.0625 20 C 8.511719 20 8.0625 20.449219 8.0625 21 C 8.0625 21.550781 8.511719 22 9.0625 22 C 9.613281 22 10.0625 21.550781 10.0625 21 C 10.0625 20.449219 9.613281 20 9.0625 20 Z M 22.9375 20 C 22.386719 20 21.9375 20.449219 21.9375 21 C 21.9375 21.550781 22.386719 22 22.9375 22 C 23.488281 22 23.9375 21.550781 23.9375 21 C 23.9375 20.449219 23.488281 20 22.9375 20 Z " fill="#ffffff"/>
</g>
</svg>
