<?xml version="1.0" encoding="UTF-8"?>
<svg xmlns="http://www.w3.org/2000/svg" xmlns:xlink="http://www.w3.org/1999/xlink" viewBox="0 0 40 40" version="1.1" width="40px" height="40px">
<g id="surface1">
<path style="fill:none;stroke-width:1;stroke-linecap:butt;stroke-linejoin:miter;stroke:#4788C7;stroke-opacity:1;stroke-miterlimit:10;" d="M 4 35 L 9 20 L 14 35 "/>
<path style="fill:none;stroke-width:1;stroke-linecap:butt;stroke-linejoin:miter;stroke:#4788C7;stroke-opacity:1;stroke-miterlimit:10;" d="M 26 35 L 31 20 L 36 35 "/>
<path style="fill:none;stroke-width:1;stroke-linecap:butt;stroke-linejoin:miter;stroke:#4788C7;stroke-opacity:1;stroke-miterlimit:10;" d="M 9 20 L 20 5 L 31 20 "/>
<path style=" fill:#DFF0FE;" d="M 23.5 5 C 23.5 6.933594 21.933594 8.5 20 8.5 C 18.066406 8.5 16.5 6.933594 16.5 5 C 16.5 3.066406 18.066406 1.5 20 1.5 C 21.933594 1.5 23.5 3.066406 23.5 5 Z "/>
<path style=" fill:#4788C7;" d="M 20 2 C 21.652344 2 23 3.347656 23 5 C 23 6.652344 21.652344 8 20 8 C 18.347656 8 17 6.652344 17 5 C 17 3.347656 18.347656 2 20 2 M 20 1 C 17.789063 1 16 2.789063 16 5 C 16 7.210938 17.789063 9 20 9 C 22.210938 9 24 7.210938 24 5 C 24 2.789063 22.210938 1 20 1 Z "/>
<path style=" fill:#DFF0FE;" d="M 39.5 35 C 39.5 36.933594 37.933594 38.5 36 38.5 C 34.066406 38.5 32.5 36.933594 32.5 35 C 32.5 33.066406 34.066406 31.5 36 31.5 C 37.933594 31.5 39.5 33.066406 39.5 35 Z "/>
<path style=" fill:#4788C7;" d="M 36 32 C 37.652344 32 39 33.347656 39 35 C 39 36.652344 37.652344 38 36 38 C 34.347656 38 33 36.652344 33 35 C 33 33.347656 34.347656 32 36 32 M 36 31 C 33.789063 31 32 32.789063 32 35 C 32 37.210938 33.789063 39 36 39 C 38.210938 39 40 37.210938 40 35 C 40 32.789063 38.210938 31 36 31 Z "/>
<path style=" fill:#DFF0FE;" d="M 29.5 35 C 29.5 36.933594 27.933594 38.5 26 38.5 C 24.066406 38.5 22.5 36.933594 22.5 35 C 22.5 33.066406 24.066406 31.5 26 31.5 C 27.933594 31.5 29.5 33.066406 29.5 35 Z "/>
<path style=" fill:#4788C7;" d="M 26 32 C 27.652344 32 29 33.347656 29 35 C 29 36.652344 27.652344 38 26 38 C 24.347656 38 23 36.652344 23 35 C 23 33.347656 24.347656 32 26 32 M 26 31 C 23.789063 31 22 32.789063 22 35 C 22 37.210938 23.789063 39 26 39 C 28.210938 39 30 37.210938 30 35 C 30 32.789063 28.210938 31 26 31 Z "/>
<path style=" fill:#DFF0FE;" d="M 34.5 20 C 34.5 21.933594 32.933594 23.5 31 23.5 C 29.066406 23.5 27.5 21.933594 27.5 20 C 27.5 18.066406 29.066406 16.5 31 16.5 C 32.933594 16.5 34.5 18.066406 34.5 20 Z "/>
<path style=" fill:#4788C7;" d="M 31 17 C 32.652344 17 34 18.347656 34 20 C 34 21.652344 32.652344 23 31 23 C 29.347656 23 28 21.652344 28 20 C 28 18.347656 29.347656 17 31 17 M 31 16 C 28.789063 16 27 17.789063 27 20 C 27 22.210938 28.789063 24 31 24 C 33.210938 24 35 22.210938 35 20 C 35 17.789063 33.210938 16 31 16 Z "/>
<path style=" fill:#DFF0FE;" d="M 12.5 20 C 12.5 21.933594 10.933594 23.5 9 23.5 C 7.066406 23.5 5.5 21.933594 5.5 20 C 5.5 18.066406 7.066406 16.5 9 16.5 C 10.933594 16.5 12.5 18.066406 12.5 20 Z "/>
<path style=" fill:#4788C7;" d="M 9 17 C 10.652344 17 12 18.347656 12 20 C 12 21.652344 10.652344 23 9 23 C 7.347656 23 6 21.652344 6 20 C 6 18.347656 7.347656 17 9 17 M 9 16 C 6.789063 16 5 17.789063 5 20 C 5 22.210938 6.789063 24 9 24 C 11.210938 24 13 22.210938 13 20 C 13 17.789063 11.210938 16 9 16 Z "/>
<path style=" fill:#DFF0FE;" d="M 17.5 35 C 17.5 36.933594 15.933594 38.5 14 38.5 C 12.066406 38.5 10.5 36.933594 10.5 35 C 10.5 33.066406 12.066406 31.5 14 31.5 C 15.933594 31.5 17.5 33.066406 17.5 35 Z "/>
<path style=" fill:#4788C7;" d="M 14 32 C 15.652344 32 17 33.347656 17 35 C 17 36.652344 15.652344 38 14 38 C 12.347656 38 11 36.652344 11 35 C 11 33.347656 12.347656 32 14 32 M 14 31 C 11.789063 31 10 32.789063 10 35 C 10 37.210938 11.789063 39 14 39 C 16.210938 39 18 37.210938 18 35 C 18 32.789063 16.210938 31 14 31 Z "/>
<path style=" fill:#DFF0FE;" d="M 7.5 35 C 7.5 36.933594 5.933594 38.5 4 38.5 C 2.066406 38.5 0.5 36.933594 0.5 35 C 0.5 33.066406 2.066406 31.5 4 31.5 C 5.933594 31.5 7.5 33.066406 7.5 35 Z "/>
<path style=" fill:#4788C7;" d="M 4 32 C 5.652344 32 7 33.347656 7 35 C 7 36.652344 5.652344 38 4 38 C 2.347656 38 1 36.652344 1 35 C 1 33.347656 2.347656 32 4 32 M 4 31 C 1.789063 31 0 32.789063 0 35 C 0 37.210938 1.789063 39 4 39 C 6.210938 39 8 37.210938 8 35 C 8 32.789063 6.210938 31 4 31 Z "/>
</g>
</svg>
