<?xml version="1.0"?>
<svg xmlns="http://www.w3.org/2000/svg" id="&#x421;&#x43B;&#x43E;&#x439;_1" data-name="&#x421;&#x43B;&#x43E;&#x439; 1" viewBox="0 0 40 40" width="80px" height="80px"><defs><style>.cls-1{fill:#fff;}.cls-2{fill:#4788c7;}.cls-3{fill:#b6dcfe;}.cls-4{fill:#98ccfd;}</style></defs><title>Exhibitor_2</title><polygon class="cls-1" points="3.5 37.5 3.5 2.5 21.8 2.5 30.5 11.2 30.5 37.5 3.5 37.5"/><path class="cls-2" d="M21.6,3,30,11.4V37H4V3H21.6M22,2H3V38H31V11L22,2Z"/><polygon class="cls-3" points="21.5 11.5 21.5 2.5 21.8 2.5 30.5 11.2 30.5 11.5 21.5 11.5"/><path class="cls-2" d="M22,3.4,29.6,11H22V3.4M22,2H21V12H31V11L22,2Z"/><path class="cls-2" d="M17.5,24a.37.37,0,0,1-.3-.1l-5-4a.5.5,0,0,1,.6-.8l4.7,3.7,5.7-5.7a.49.49,0,0,1,.7.7l-6,6A.4.4,0,0,1,17.5,24Z"/><path class="cls-2" d="M11.5,31a.6.6,0,0,1-.4-.1.48.48,0,0,1,0-.7l6-6a.48.48,0,0,1,.7,0l4,4a.49.49,0,0,1-.7.7l-3.6-3.6-5.6,5.6A.6.6,0,0,1,11.5,31Z"/><polygon class="cls-4" points="30 22 30 37 28 37 28 38 31 38 31 21 30 22"/><polygon class="cls-4" points="38.96 31.5 34.5 31.5 34.5 39.5 29.5 39.5 29.5 31.5 25.04 31.5 32 22.8 38.96 31.5"/><path class="cls-2" d="M30,39V31H26.08L32,23.6,37.92,31H34v8H30m-1,1h6V32h5L32,22,24,32h5v8Z"/></svg>
