<?xml version="1.0" encoding="UTF-8"?>
<svg xmlns="http://www.w3.org/2000/svg" xmlns:xlink="http://www.w3.org/1999/xlink" viewBox="0 0 32 32" version="1.1" fill="#ffffff" width="32px" height="32px">
<g id="surface1" fill="#ffffff">
<path style=" " d="M 16 8 C 13.25 8 11 10.25 11 13 C 11 14.515625 11.707031 15.863281 12.78125 16.78125 C 11.714844 17.339844 10.78125 18.183594 10.125 19.1875 C 9.769531 18.671875 9.300781 18.195313 8.78125 17.84375 C 9.523438 17.117188 10 16.113281 10 15 C 10 12.800781 8.199219 11 6 11 C 3.800781 11 2 12.800781 2 15 C 2 16.113281 2.476563 17.117188 3.21875 17.84375 C 1.886719 18.746094 1 20.285156 1 22 L 3 22 C 3 20.34375 4.34375 19 6 19 C 7.65625 19 9 20.34375 9 22 L 9 23 L 11 23 C 11 20.246094 13.246094 18 16 18 C 18.753906 18 21 20.246094 21 23 L 23 23 L 23 22 C 23 20.34375 24.34375 19 26 19 C 27.65625 19 29 20.34375 29 22 L 31 22 C 31 20.285156 30.113281 18.746094 28.78125 17.84375 C 29.523438 17.117188 30 16.113281 30 15 C 30 12.800781 28.199219 11 26 11 C 23.800781 11 22 12.800781 22 15 C 22 16.113281 22.476563 17.117188 23.21875 17.84375 C 22.699219 18.195313 22.230469 18.671875 21.875 19.1875 C 21.21875 18.183594 20.285156 17.339844 19.21875 16.78125 C 20.292969 15.863281 21 14.515625 21 13 C 21 10.25 18.75 8 16 8 Z M 16 10 C 17.667969 10 19 11.332031 19 13 C 19 14.667969 17.667969 16 16 16 C 14.332031 16 13 14.667969 13 13 C 13 11.332031 14.332031 10 16 10 Z M 6 13 C 7.117188 13 8 13.882813 8 15 C 8 16.117188 7.117188 17 6 17 C 4.882813 17 4 16.117188 4 15 C 4 13.882813 4.882813 13 6 13 Z M 26 13 C 27.117188 13 28 13.882813 28 15 C 28 16.117188 27.117188 17 26 17 C 24.882813 17 24 16.117188 24 15 C 24 13.882813 24.882813 13 26 13 Z " fill="#ffffff"/>
</g>
</svg>
