<?xml version="1.0" encoding="iso-8859-1"?>
<!-- Generator: Adobe Illustrator 22.0.1, SVG Export Plug-In . SVG Version: 6.00 Build 0)  -->
<svg xmlns="http://www.w3.org/2000/svg" xmlns:xlink="http://www.w3.org/1999/xlink" version="1.1" id="Layer_1" x="0px" y="0px" viewBox="0 0 40 40" style="enable-background:new 0 0 40 40;" xml:space="preserve" width="40px" height="40px">
<path style="fill:#DFF0FE;" d="M5.21,30.5H8.5v-12c0-2.209,1.791-4,4-4H26v5H14.5c-0.552,0-1,0.448-1,1v10h3.29L11,36.29L5.21,30.5z  "/>
<g>
	<path style="fill:#DFF0FE;" d="M34.79,8.5H31.5v12c0,2.209-1.791,4-4,4H14v-5h11.5c0.552,0,1-0.448,1-1v-10h-3.29L29,2.71   L34.79,8.5z"/>
</g>
<path style="fill:#4788C7;" d="M29,2.003L22.003,9H26v5H12.5C10.019,14,8,16.019,8,18.5V30H4.003L11,36.997L17.997,30H14v-5h13.5  c2.481,0,4.5-2.019,4.5-4.5V9h3.997L29,2.003z M13,20.5V31h2.583L11,35.583L6.417,31H9V18.5c0-1.93,1.57-3.5,3.5-3.5H26v3.5  c0,0.275-0.225,0.5-0.5,0.5h-11C13.673,19,13,19.673,13,20.5z M31,8v12.5c0,1.93-1.57,3.5-3.5,3.5H14v-3.5  c0-0.275,0.225-0.5,0.5-0.5h11c0.827,0,1.5-0.673,1.5-1.5V8h-2.583L29,3.417L33.583,8H31z"/>
</svg>
