<?xml version="1.0"?>
<svg xmlns="http://www.w3.org/2000/svg" viewBox="0 0 32 32" fill="#ffffff" width="32px" height="32px">
    <path style="line-height:normal;text-indent:0;text-align:start;text-decoration-line:none;text-decoration-style:solid;text-decoration-color:#000;text-transform:none;block-progression:tb;isolation:auto;mix-blend-mode:normal" d="M 3 4 L 3 5 L 3 14 L 15 14 L 15 4 L 3 4 z M 5 6 L 13 6 L 13 12 L 5 12 L 5 6 z M 9 15 A 1 1 0 0 0 8 16 A 1 1 0 0 0 9 17 A 1 1 0 0 0 10 16 A 1 1 0 0 0 9 15 z M 9 18 A 1 1 0 0 0 8 19 A 1 1 0 0 0 9 20 A 1 1 0 0 0 10 19 A 1 1 0 0 0 9 18 z M 17 18 L 17 19 L 17 28 L 29 28 L 29 18 L 17 18 z M 19 20 L 27 20 L 27 26 L 19 26 L 19 20 z M 9 21 A 1 1 0 0 0 8 22 A 1 1 0 0 0 9 23 A 1 1 0 0 0 10 22 A 1 1 0 0 0 9 21 z M 12 21 A 1 1 0 0 0 11 22 A 1 1 0 0 0 12 23 A 1 1 0 0 0 13 22 A 1 1 0 0 0 12 21 z M 15 21 A 1 1 0 0 0 14 22 A 1 1 0 0 0 15 23 A 1 1 0 0 0 16 22 A 1 1 0 0 0 15 21 z" font-weight="400" font-family="sans-serif" white-space="normal" overflow="visible" fill="#ffffff"/>
</svg>
