<?xml version="1.0" encoding="iso-8859-1"?>
<!-- Generator: Adobe Illustrator 22.1.0, SVG Export Plug-In . SVG Version: 6.00 Build 0)  -->
<svg xmlns="http://www.w3.org/2000/svg" xmlns:xlink="http://www.w3.org/1999/xlink" version="1.1" id="Layer_1" x="0px" y="0px" width="80px" height="80px" viewBox="0 0 40 40" style="enable-background:new 0 0 40 40;" xml:space="preserve">
<g>
	<g>
		<rect x="33.5" y="5.5" style="fill:#DFF0FE;" width="2" height="2"/>
	</g>
	<path style="fill:#4788C7;" d="M35,6v1h-1V6H35 M36,5h-3v3h3V5L36,5z"/>
</g>
<g>
	<g>
		<rect x="33.5" y="14.5" style="fill:#DFF0FE;" width="2" height="2"/>
	</g>
	<path style="fill:#4788C7;" d="M35,15v1h-1v-1H35 M36,14h-3v3h3V14L36,14z"/>
</g>
<g>
	<g>
		<rect x="33.5" y="23.5" style="fill:#DFF0FE;" width="2" height="2"/>
	</g>
	<path style="fill:#4788C7;" d="M35,24v1h-1v-1H35 M36,23h-3v3h3V23L36,23z"/>
</g>
<g>
	<g>
		<rect x="33.5" y="32.5" style="fill:#DFF0FE;" width="2" height="2"/>
	</g>
	<path style="fill:#4788C7;" d="M35,33v1h-1v-1H35 M36,32h-3v3h3V32L36,32z"/>
</g>
<line style="fill:#DFF0FE;stroke:#4788C7;stroke-linecap:round;stroke-miterlimit:10;" x1="4.5" y1="6.5" x2="21.5" y2="6.5"/>
<line style="fill:#DFF0FE;stroke:#4788C7;stroke-linecap:round;stroke-miterlimit:10;" x1="25.5" y1="6.5" x2="29.5" y2="6.5"/>
<line style="fill:#DFF0FE;stroke:#4788C7;stroke-linecap:round;stroke-miterlimit:10;" x1="4.5" y1="15.5" x2="14.5" y2="15.5"/>
<line style="fill:#DFF0FE;stroke:#4788C7;stroke-linecap:round;stroke-miterlimit:10;" x1="25.5" y1="15.5" x2="29.5" y2="15.5"/>
<line style="fill:#DFF0FE;stroke:#4788C7;stroke-linecap:round;stroke-miterlimit:10;" x1="4.5" y1="24.5" x2="17.5" y2="24.5"/>
<line style="fill:#DFF0FE;stroke:#4788C7;stroke-linecap:round;stroke-miterlimit:10;" x1="25.5" y1="24.5" x2="29.5" y2="24.5"/>
<line style="fill:#DFF0FE;stroke:#4788C7;stroke-linecap:round;stroke-miterlimit:10;" x1="4.5" y1="33.5" x2="19.5" y2="33.5"/>
<line style="fill:#DFF0FE;stroke:#4788C7;stroke-linecap:round;stroke-miterlimit:10;" x1="25.5" y1="33.5" x2="29.5" y2="33.5"/>
</svg>
