<?xml version="1.0" encoding="UTF-8"?>
<svg xmlns="http://www.w3.org/2000/svg" xmlns:xlink="http://www.w3.org/1999/xlink" viewBox="0 0 40 40" version="1.1" width="40px" height="40px">
<g id="surface1">
<path style=" fill:#DFF0FE;" d="M 39 20 C 39 30.578125 30.382813 39 20 39 C 9.617188 39 1 30.578125 1 20 C 1 9.421875 9.421875 1 20 1 C 30.578125 1 39 9.421875 39 20 Z "/>
<path style=" fill:#98CCFD;" d="M 27.125 26.949219 C 27.554688 27.164063 27.988281 27.164063 28.203125 27.597656 C 28.851563 28.246094 28.851563 29.324219 29.070313 29.972656 C 29.285156 30.839844 29.5 31.699219 29.933594 32.566406 C 30.148438 33.644531 30.582031 34.726563 30.796875 35.589844 C 30.9375 35.476563 31.101563 35.375 31.261719 35.269531 C 35.925781 31.820313 39 26.300781 39 20 C 39 14.402344 36.628906 9.425781 32.839844 5.964844 C 32.378906 5.8125 31.910156 5.796875 31.441406 6.003906 C 30.796875 6.222656 30.363281 7.085938 29.933594 7.515625 C 29.5 8.164063 29.066406 8.8125 28.636719 9.460938 C 28.421875 9.675781 28.203125 10.109375 28.421875 10.324219 C 28.421875 10.539063 28.636719 10.539063 28.851563 10.539063 C 29.285156 10.757813 29.5 10.757813 29.933594 10.972656 C 30.148438 10.972656 30.363281 11.1875 30.148438 11.402344 C 30.148438 11.402344 30.148438 11.621094 29.933594 11.621094 C 28.851563 12.699219 27.773438 13.5625 26.695313 14.644531 C 26.476563 14.859375 26.261719 15.289063 26.261719 15.507813 C 26.261719 15.722656 26.476563 15.722656 26.476563 15.9375 C 26.476563 16.15625 26.261719 16.15625 26.046875 16.371094 C 25.613281 16.589844 25.183594 16.804688 24.964844 17.019531 C 24.75 17.453125 24.964844 18.101563 24.75 18.53125 C 24.535156 19.609375 23.886719 20.472656 23.453125 21.554688 C 23.019531 22.199219 22.804688 22.847656 22.375 23.496094 C 22.375 24.359375 22.15625 25.007813 22.589844 25.65625 C 23.671875 27.164063 25.613281 26.300781 27.125 26.949219 Z "/>
<path style=" fill:#98CCFD;" d="M 26.726563 2.210938 C 24.636719 1.433594 22.375 1 20 1 C 19.609375 1 19.222656 1.019531 18.839844 1.039063 C 18.570313 1.460938 18.355469 1.871094 18.273438 2.117188 C 18.058594 3.199219 18.921875 2.984375 19.785156 3.199219 C 19.785156 3.199219 20 4.925781 20 5.140625 C 20.214844 6.222656 19.566406 6.867188 19.566406 7.949219 C 19.566406 8.597656 19.566406 9.675781 20 10.105469 L 20.214844 10.105469 C 20.433594 10.105469 20.648438 9.890625 21.078125 9.675781 C 21.726563 9.242188 22.375 8.597656 23.023438 8.164063 C 23.671875 7.730469 24.320313 7.085938 24.75 6.652344 C 25.398438 6.222656 25.828125 5.359375 26.046875 4.710938 C 26.261719 4.277344 27.003906 3.003906 26.785156 2.359375 C 26.769531 2.324219 26.746094 2.261719 26.726563 2.210938 Z "/>
<path style=" fill:#98CCFD;" d="M 1.433594 20.902344 C 2.078125 22.195313 3.375 23.492188 4.671875 24.355469 C 5.535156 25.003906 7.261719 25.003906 8.125 26.082031 C 8.773438 26.949219 8.558594 28.027344 8.558594 29.105469 C 8.558594 30.402344 9.421875 31.480469 9.851563 32.558594 C 10.066406 33.207031 10.285156 34.070313 10.5 34.71875 C 10.5 34.933594 10.714844 36.230469 10.714844 36.445313 C 10.785156 36.480469 10.84375 36.558594 10.894531 36.65625 C 12.046875 37.289063 13.269531 37.796875 14.550781 38.183594 C 14.566406 38.183594 14.585938 38.171875 14.601563 38.175781 C 14.820313 38.175781 15.683594 36.878906 15.683594 36.660156 C 16.332031 36.015625 16.761719 35.152344 17.410156 34.71875 C 17.84375 34.503906 18.273438 34.285156 18.703125 33.855469 C 19.136719 33.421875 19.351563 32.558594 19.570313 31.910156 C 19.785156 31.480469 20 30.617188 19.785156 29.96875 C 19.648438 29.558594 19.570313 29.320313 19.136719 29.105469 C 17.84375 28.671875 16.546875 28.671875 15.46875 27.59375 C 15.25 27.160156 15.25 26.730469 15.035156 26.296875 C 14.601563 25.867188 13.523438 25.648438 12.875 25.433594 L 8.558594 25.433594 C 7.910156 25.21875 7.476563 24.355469 7.046875 23.707031 C 7.046875 23.492188 7.046875 23.058594 6.613281 23.058594 C 6.183594 22.84375 5.75 23.273438 5.320313 23.058594 C 5.101563 22.84375 5.101563 22.625 5.101563 22.410156 C 5.101563 21.761719 5.535156 21.113281 5.96875 20.683594 C 6.613281 20.253906 7.261719 20.898438 7.910156 20.898438 C 8.125 20.898438 8.125 20.898438 8.339844 21.117188 C 8.988281 21.332031 9.203125 22.195313 9.203125 22.84375 L 9.203125 23.277344 C 9.203125 23.492188 9.421875 23.492188 9.636719 23.492188 C 9.851563 22.414063 9.851563 21.332031 10.070313 20.253906 C 10.070313 18.957031 11.363281 17.660156 12.445313 17.230469 C 12.875 17.015625 13.09375 17.445313 13.523438 17.230469 C 14.816406 16.796875 18.058594 15.503906 17.410156 13.777344 C 16.976563 12.265625 15.683594 10.753906 13.953125 10.96875 C 13.523438 11.1875 13.308594 11.402344 12.875 11.617188 C 12.226563 12.050781 10.933594 13.347656 10.285156 13.347656 C 9.207031 13.128906 9.207031 11.617188 9.421875 10.96875 C 9.636719 10.105469 11.578125 7.300781 12.875 7.730469 C 13.089844 7.949219 13.523438 8.378906 13.738281 8.597656 C 14.171875 8.8125 14.820313 8.8125 15.464844 8.8125 C 15.683594 8.8125 15.898438 8.8125 16.113281 8.597656 C 16.328125 8.378906 16.328125 8.378906 16.328125 8.164063 C 16.328125 7.515625 15.683594 6.867188 15.25 6.4375 C 14.820313 6.003906 14.171875 5.570313 13.523438 5.359375 C 12.144531 4.941406 9.230469 5.433594 6.851563 6.234375 C 3.238281 9.683594 1 14.554688 1 20 C 1 20.089844 1.007813 20.179688 1.011719 20.269531 C 1.164063 20.488281 1.3125 20.703125 1.433594 20.902344 Z "/>
<path style=" fill:#4788C7;" d="M 20 2 C 30.09375 2 38 9.90625 38 20 C 38 29.925781 29.925781 38 20 38 C 10.074219 38 2 29.925781 2 20 C 2 9.90625 9.90625 2 20 2 M 20 1 C 9.421875 1 1 9.421875 1 20 C 1 30.578125 9.617188 39 20 39 C 30.382813 39 39 30.578125 39 20 C 39 9.421875 30.578125 1 20 1 Z "/>
<path style=" fill:#4788C7;" d="M 2 16 L 38 16 L 38 17 L 2 17 Z "/>
<path style=" fill:#4788C7;" d="M 2 23 L 38 23 L 38 24 L 2 24 Z "/>
<path style=" fill:#4788C7;" d="M 4.5 30 L 35.5 30 L 35.5 31 L 4.5 31 Z "/>
<path style=" fill:#4788C7;" d="M 5 9 L 35 9 L 35 10 L 5 10 Z "/>
<path style=" fill:#4788C7;" d="M 19.996094 2 C 21.355469 2 23.996094 8.351563 23.996094 20 C 23.996094 31.648438 21.355469 38 19.996094 38 C 18.636719 38 15.996094 31.648438 15.996094 20 C 15.996094 8.351563 18.636719 2 19.996094 2 M 19.996094 1 C 17.234375 1 14.996094 9.507813 14.996094 20 C 14.996094 30.492188 17.234375 39 19.996094 39 C 22.757813 39 24.996094 30.492188 24.996094 20 C 24.996094 9.507813 22.757813 1 19.996094 1 Z "/>
<path style=" fill:#4788C7;" d="M 19.996094 2 C 26.613281 2 31.996094 10.074219 31.996094 20 C 31.996094 29.925781 26.613281 38 19.996094 38 C 13.378906 38 7.996094 29.925781 7.996094 20 C 7.996094 10.074219 13.378906 2 19.996094 2 M 19.996094 1 C 12.816406 1 6.996094 9.507813 6.996094 20 C 6.996094 30.492188 12.816406 39 19.996094 39 C 27.175781 39 32.996094 30.492188 32.996094 20 C 32.996094 9.507813 27.175781 1 19.996094 1 Z "/>
</g>
</svg>
