<?xml version="1.0" encoding="UTF-8"?>
<svg xmlns="http://www.w3.org/2000/svg" xmlns:xlink="http://www.w3.org/1999/xlink" viewBox="0 0 32 32" version="1.1" fill="#ffffff" width="32px" height="32px">
<g id="surface1" fill="#ffffff">
<path style=" " d="M 6 4 L 6 28 L 16 28 L 15.09375 26 L 8 26 L 8 21 L 15.3125 21 L 16.09375 19 L 8 19 L 8 13 L 24 13 L 24 15.40625 L 26 15.40625 L 26 4 Z M 8 6 L 24 6 L 24 11 L 8 11 Z M 22 16.59375 L 20.1875 17.40625 L 20.6875 18.59375 C 19.789063 19.09375 19.09375 19.886719 18.59375 20.6875 L 17.40625 20.1875 L 16.59375 22 L 17.8125 22.5 C 17.613281 23.5 17.613281 24.5 17.8125 25.5 L 16.59375 26 L 17.40625 27.8125 L 18.59375 27.3125 C 19.09375 28.210938 19.886719 28.90625 20.6875 29.40625 L 20.1875 30.59375 L 22 31.40625 L 22.5 30.1875 C 23 30.289063 23.5 30.40625 24 30.40625 C 24.5 30.40625 25 30.289063 25.5 30.1875 L 26 31.40625 L 27.8125 30.59375 L 27.3125 29.40625 C 28.210938 28.90625 28.90625 28.113281 29.40625 27.3125 L 30.59375 27.8125 L 31.40625 26 L 30.1875 25.5 C 30.488281 24.5 30.488281 23.5 30.1875 22.5 L 31.40625 22 L 30.59375 20.1875 L 29.40625 20.6875 C 28.90625 19.789063 28.113281 19.09375 27.3125 18.59375 L 27.8125 17.40625 L 26 16.59375 L 25.5 17.8125 C 25 17.710938 24.5 17.59375 24 17.59375 C 23.5 17.59375 23 17.710938 22.5 17.8125 Z M 24 19.59375 C 25.800781 19.59375 27.394531 20.710938 28.09375 22.3125 C 28.992188 24.613281 27.886719 27.09375 25.6875 28.09375 C 25.1875 28.292969 24.601563 28.40625 24 28.40625 C 22.199219 28.40625 20.605469 27.289063 19.90625 25.6875 C 19.007813 23.488281 20.011719 20.90625 22.3125 19.90625 C 22.8125 19.707031 23.398438 19.59375 24 19.59375 Z " fill="#ffffff"/>
</g>
</svg>
